<svg xmlns="http://www.w3.org/2000/svg" width="70.205" height="60.103" viewBox="0 0 70.205 60.103"><g transform="translate(-753.655 -440)"><g transform="translate(753.655 440)" opacity="0.729"><path d="M-185.6-218.126c4.952,7.847,7.326,16.085,5.675,23.469a25.327,25.327,0,0,1-14.261,17.026c-6.993,3.113-15.3,2.809-24.077-.058s-18-8.325-20.979-16.563.3-19.285,6.964-27.509S-215.58-235.4-206.806-234.4-190.533-225.959-185.6-218.126Z" transform="translate(240.345 234.518)" fill="#fff"/></g><g transform="translate(823.86 443.762) rotate(90)" opacity="0.674"><path d="M49.206,6.011c6.051,5.846,8.457,16.629,6.43,26.633a35.808,35.808,0,0,1-17.5,24.092c-9.005,4.865-20.572,5.384-27.72.361S.521,41.536.071,32.471,1.422,15.784,5.741,10.342,16.885,1.637,25.159.453,43.142.165,49.206,6.011Z" transform="translate(0 0)" fill="#fff"/></g><text transform="translate(774 487)" fill="#e05943" font-size="48" font-family="HelveticaNeue-Bold, Helvetica Neue" font-weight="700"><tspan x="0" y="0">S</tspan></text></g></svg>